<svg xmlns="http://www.w3.org/2000/svg" viewBox="0 0 32 32">
  <rect width="32" height="32" rx="7" fill="#faf6f0"/>
  <path d="M16 25.5c-.5 0-.9-.2-1.3-.5C9.6 20.7 6.5 17.9 6.5 14.1c0-2.6 2-4.6 4.6-4.6 1.7 0 3.3.9 4.9 2.8 1.6-1.9 3.2-2.8 4.9-2.8 2.6 0 4.6 2 4.6 4.6 0 3.8-3.1 6.6-8.2 10.9-.4.3-.8.5-1.3.5z" fill="#8e2740"/>
  <path d="M16 25.5c-.5 0-.9-.2-1.3-.5C9.6 20.7 6.5 17.9 6.5 14.1c0-2.6 2-4.6 4.6-4.6 1.7 0 3.3.9 4.9 2.8 1.6-1.9 3.2-2.8 4.9-2.8 2.6 0 4.6 2 4.6 4.6 0 3.8-3.1 6.6-8.2 10.9-.4.3-.8.5-1.3.5z" fill="none" stroke="#b8945f" stroke-width="0.4" opacity="0.6"/>
</svg>
